HIERARCHY
ROOT Hips
{
	OFFSET -3.958830 18.904000 13.208200
	CHANNELS 6 Xposition Yposition Zposition Zrotation Yrotation Xrotation 
	JOINT LHipJoint
	{
		OFFSET 0.000000 0.000000 0.000000
		CHANNELS 3 Zrotation Yrotation Xrotation
		JOINT LeftUpLeg
		{
			OFFSET 1.800000 -1.400000 0.085000
			CHANNELS 3 Zrotation Yrotation Xrotation
			JOINT LeftLeg
			{
				OFFSET 2.215000 -6.000000 0.000000
				CHANNELS 3 Zrotation Yrotation Xrotation
				JOINT LeftFoot
				{
					OFFSET 2.500000 -6.900000 0.000000
					CHANNELS 3 Zrotation Yrotation Xrotation
					JOINT LeftToeBase
					{
						OFFSET 0.200000 -0.500000 1.950000
						CHANNELS 3 Zrotation Yrotation Xrotation
						End Site
						{
							OFFSET 0.000000 0.000000 0.000000
						}
					}
				}
			}
		}
	}
	JOINT RHipJoint
	{
		OFFSET 0.000000 0.000000 0.000000
		CHANNELS 3 Zrotation Yrotation Xrotation
		JOINT RightUpLeg
		{
			OFFSET -1.800000 -1.400000 0.085000
			CHANNELS 3 Zrotation Yrotation Xrotation
			JOINT RightLeg
			{
				OFFSET -2.215000 -6.000000 0.000000
				CHANNELS 3 Zrotation Yrotation Xrotation
				JOINT RightFoot
				{
					OFFSET -2.500000 -6.900000 0.000000
					CHANNELS 3 Zrotation Yrotation Xrotation
					JOINT RightToeBase
					{
						OFFSET -0.200000 -0.500000 1.950000
						CHANNELS 3 Zrotation Yrotation Xrotation
						End Site
						{
							OFFSET 0.000000 0.000000 0.000000
						}
					}
				}
			}
		}
	}
	JOINT LowerBack
	{
		OFFSET 0.000000 0.000000 0.000000
		CHANNELS 3 Zrotation Yrotation Xrotation
		JOINT Spine
		{
			OFFSET -0.087000 1.940000 -0.288900
			CHANNELS 3 Zrotation Yrotation Xrotation
			JOINT Spine1
			{
				OFFSET 0.000000 1.950000 0.060000
				CHANNELS 3 Zrotation Yrotation Xrotation
				JOINT Neck
				{
					OFFSET 0.000000 0.000000 0.000000
					CHANNELS 3 Zrotation Yrotation Xrotation
					JOINT Neck1
					{
						OFFSET 0.000000 1.600000 0.340000
						CHANNELS 3 Zrotation Yrotation Xrotation
						JOINT Head
						{
							OFFSET 0.000000 1.667000 -0.240000
							CHANNELS 3 Zrotation Yrotation Xrotation
							End Site
							{
								OFFSET 0.000000 0.000000 0.000000
							}
						}
					}
				}
				JOINT LeftShoulder
				{
					OFFSET 0.000000 0.000000 0.000000
					CHANNELS 3 Zrotation Yrotation Xrotation
					JOINT LeftArm
					{
						OFFSET 2.700000 1.550000 -0.730000
						CHANNELS 3 Zrotation Yrotation Xrotation
						JOINT LeftForeArm
						{
							OFFSET 5.450000 0.000000 0.000000
							CHANNELS 3 Zrotation Yrotation Xrotation
							JOINT LeftHand
							{
								OFFSET 3.450000 0.000000 0.000000
								CHANNELS 3 Zrotation Yrotation Xrotation
								JOINT LeftHandIndex1
								{
									OFFSET 0.750000 0.000000 0.000000
									CHANNELS 3 Zrotation Yrotation Xrotation
									End Site
									{
										OFFSET 0.000000 0.000000 0.000000
									}
								}
							}
						}
					}
				}
				JOINT RightShoulder
				{
					OFFSET 0.000000 0.000000 0.000000
					CHANNELS 3 Zrotation Yrotation Xrotation
					JOINT RightArm
					{
						OFFSET -2.700000 1.550000 -0.730000
						CHANNELS 3 Zrotation Yrotation Xrotation
						JOINT RightForeArm
						{
							OFFSET -5.450000 0.000000 0.000000
							CHANNELS 3 Zrotation Yrotation Xrotation
							JOINT RightHand
							{
								OFFSET -3.450000 0.000000 0.000000
								CHANNELS 3 Zrotation Yrotation Xrotation
								JOINT RightHandIndex1
								{
									OFFSET -0.750000 0.000000 0.000000
									CHANNELS 3 Zrotation Yrotation Xrotation
									End Site
									{
										OFFSET 0.000000 0.000000 0.000000
									}
								}
							}
						}
					}
				}
			}
		}
	}
}
MOTION
Frames: 7
Frame Time: 0.016667
0.624050 15.485720 -0.645990 2.208560 -4.396505 -9.749033 -15.370380 11.189530 4.068201 -16.206046 -4.980252 2.287626 -23.375879 21.144545 45.735015 1.719242 12.217242 0.739767 -0.339180 -0.897430 -0.071300 18.560735 -8.023511 4.878491 -14.188747 7.208540 -45.050604 34.246431 -26.900884 48.390958 -1.879675 -11.490501 0.360491 -0.568350 0.575080 0.734740 -3.785768 -2.270726 -9.387887 26.345839 -7.082804 36.568208 0.104124 -4.583694 15.539154 3.898189 8.503426 -16.229796 15.897720 -8.553923 51.912726 -15.263610 7.978410 12.966300 -0.637661 -13.122817 4.286427 9.689520 7.119773 -2.574949 -131.366993 -68.800790 106.760341 -3.877274 3.485989 0.541510 0.456360 -0.026810 0.052660 -7.261158 6.221781 15.062125 33.997852 -11.713954 -6.226177 173.391893 47.363089 138.412423 2.132521 -2.073054 -0.239410 -0.153390 0.430160 -0.107340 
0.631910 15.501290 -0.676020 1.700203 -4.397900 -9.256307 -15.312304 11.065263 4.069294 -15.992417 -5.701297 1.240134 -23.595068 21.132131 46.120251 1.750605 12.243689 0.752141 -0.344890 -0.884010 -0.110600 18.622466 -8.072428 4.905432 -14.343941 6.729720 -45.633545 35.110804 -27.012187 47.438178 -1.861188 -11.421734 0.390272 -0.560980 0.609550 0.715260 -3.959992 -2.018799 -9.385452 27.642918 -8.206546 36.348845 -1.174598 -5.283563 15.518287 3.873667 8.032427 -16.039485 14.920527 -7.639094 51.096357 -13.812280 6.950330 13.179190 -0.300791 -13.071606 4.658852 7.412146 6.953782 -3.181061 -117.727722 -71.239802 92.210887 -3.989063 3.228126 0.515090 0.458000 -0.044790 0.078040 -7.578228 6.236193 14.675426 33.900814 -9.656178 -5.618958 173.435699 47.055117 138.506701 2.141250 -2.082076 -0.240910 -0.131020 0.423330 -0.075370 
0.658790 15.550420 -0.686440 0.308127 -6.987976 -6.934853 -15.223138 10.810349 3.979854 -15.476901 -6.471816 -2.199372 -23.880114 20.627810 45.479772 1.778439 11.858396 0.868930 -0.238540 -0.692300 -0.135010 18.739150 -7.994244 5.192476 -14.727680 7.285647 -48.960807 37.031897 -27.751941 47.163137 -1.966570 -11.538713 0.416717 -0.500010 0.585470 0.689680 -4.290304 -1.600305 -9.437346 30.274157 -9.814593 34.543883 -3.322665 -5.998133 15.652028 3.970444 6.071182 -16.032559 10.718686 -5.310326 52.410432 -11.420680 4.488480 12.119120 -0.393969 -12.373390 7.034639 -1.061141 7.809371 -3.340566 -78.994526 -75.530252 57.035279 -3.970109 3.605432 0.466450 0.404400 0.008450 0.169680 -7.655389 6.728427 13.025751 32.018707 -5.411832 -5.256525 169.192246 48.474640 131.196061 2.161391 -2.076525 -0.151400 -0.112520 0.320280 0.016520 
0.647440 15.633380 -0.687100 -0.328429 -9.675075 -5.038524 -15.223963 10.756685 3.930660 -13.798869 -7.248697 -5.530975 -24.969986 20.723742 44.708717 1.831619 11.766942 0.982232 -0.361540 -0.739200 -0.314970 18.746838 -7.872867 5.367172 -14.850317 7.845494 -51.224382 36.810534 -27.984919 48.052818 -1.960342 -11.680494 0.503186 -0.536200 0.759920 0.617300 -4.338453 -1.626513 -9.495856 29.284965 -10.300731 34.393359 -4.304071 -6.007441 14.316976 4.072455 5.032150 -15.651417 8.473394 -3.569928 51.284464 -9.655690 3.513610 13.914730 0.284757 -11.099805 6.693416 -11.959288 7.190194 -6.956847 -39.540778 -69.607842 23.695156 -3.812403 3.659975 0.382910 0.483820 -0.057680 0.236800 -8.617100 6.401028 12.603003 38.575654 -3.308602 -7.740128 161.185757 54.351113 120.826882 2.111635 -1.905542 -0.192970 0.031430 0.353980 0.112670 
0.659860 15.739840 -0.655670 -1.101694 -10.114311 -4.228108 -15.245896 10.809650 3.922072 -12.014087 -8.249918 -7.489458 -24.065545 20.863998 46.757331 2.003928 11.925277 0.934210 -0.388850 -0.705690 -0.348150 18.714369 -7.784307 5.417226 -17.379741 6.328815 -50.608384 39.745139 -28.887503 45.748545 -1.959958 -11.653079 0.516243 -0.576480 0.738550 0.655520 -4.258629 -1.898827 -9.553154 29.261402 -11.532747 34.425749 -5.811796 -6.473099 11.652069 4.968601 4.765870 -14.896208 7.797251 -3.270074 48.894544 -11.513350 4.991320 14.492160 -1.821810 -9.338276 6.066784 -17.799718 7.040719 -8.294650 -19.116327 -62.613703 9.090988 -3.836696 3.579095 0.268730 0.506740 -0.033820 0.239660 -8.563564 5.114097 11.818015 45.779458 -2.914977 -12.824026 142.938708 64.626914 104.818903 2.178341 -1.570246 -0.091420 -0.042890 0.330910 0.172490 
0.630480 15.823210 -0.631750 -1.430988 -10.227326 -3.533554 -15.318713 10.962306 3.847243 -9.504335 -9.051890 -9.590928 -22.214997 20.944636 49.510346 1.951861 12.248670 0.814680 -0.380570 -0.691910 -0.353180 18.648519 -7.521944 5.537860 -20.680009 5.077400 -50.377622 42.418363 -30.323817 44.791762 -2.049972 -11.811774 0.490461 -0.560930 0.771660 0.671910 -4.056483 -2.569884 -9.637062 27.049001 -11.527892 34.840272 -5.295914 -6.368550 7.954253 5.039709 4.104059 -13.559739 6.159455 -1.430847 47.319834 -11.055070 6.202020 10.701450 -2.662549 -5.917474 5.005699 -22.531328 5.787771 -7.955820 -13.224229 -54.033964 5.065566 -3.912020 3.396411 0.341910 0.510070 -0.006260 0.244000 -7.942709 2.072976 10.085738 51.581824 -1.963151 -12.373564 100.483166 75.539660 62.656019 3.451535 0.284297 -0.122510 0.025360 0.366260 0.156460 
0.568710 15.911490 -0.584600 -2.250784 -10.792431 -1.835103 -15.314744 10.920696 3.886776 -4.571837 -10.109616 -13.425410 -23.088622 23.147187 52.573986 2.103539 13.021419 0.557941 -0.325070 -0.657960 -0.292910 18.638906 -7.407967 5.605546 -23.298640 4.237887 -49.788445 44.567393 -31.294334 43.382097 -2.084643 -11.783148 0.483524 -0.554010 0.681380 0.650960 -4.049061 -2.729399 -9.761119 25.922766 -10.875385 33.031198 -4.833459 -5.337920 3.649836 4.296129 3.551408 -12.879416 4.685962 -1.491872 48.424581 -10.671980 5.947350 10.960970 -4.456103 -3.463269 4.493587 -24.807206 7.343096 -7.447532 -16.683093 -46.303660 5.685411 -3.868728 3.382222 0.390690 0.440100 0.029970 0.241520 -4.755272 0.212140 8.990036 56.299728 -4.783082 -15.899928 38.585413 70.954435 19.012165 2.024859 -2.030178 -0.109220 -0.021340 0.312880 0.128310 
